<?xml version="1.0" encoding="UTF-8" standalone="no"?>
<!DOCTYPE svg PUBLIC "-//W3C//DTD SVG 1.1//EN" "http://www.w3.org/Graphics/SVG/1.1/DTD/svg11.dtd">
<svg width="100%" height="100%" viewBox="0 0 654 1003" version="1.1" xmlns="http://www.w3.org/2000/svg" xmlns:xlink="http://www.w3.org/1999/xlink" xml:space="preserve" xmlns:serif="http://www.serif.com/" style="fill-rule:evenodd;clip-rule:evenodd;stroke-linejoin:round;stroke-miterlimit:1.41421;"><g id="_2153881730848"><path d="M502.85,850.653c6.009,4.359 11.228,11.358 15.358,17.047c9.338,12.898 13.787,28.995 19.357,43.733c8.858,23.456 17.757,25.836 34.144,42.253c4.249,4.249 8.219,10.189 4.479,16.178c-6.499,10.398 -19.447,10.188 -30.265,10.078c-7.459,-0.08 -5.029,-0.13 -10.288,4.119c-8.569,6.919 -21.137,9.999 -24.586,-0.52c-4.839,3.35 -9.549,6.259 -16.098,6.819c-9.598,0.81 -16.297,-1.469 -18.107,-9.048c-1.389,1.04 -2.779,2.079 -4.259,2.969c-10.068,6.079 -28.285,10.739 -37.614,1.27c-9.878,3.639 -23.026,3.13 -29.755,-5.619c-1.36,1.74 -2.7,3.589 -3.55,4.669c-2.179,2.78 -4.739,6.189 -7.308,8.589c-16.218,15.067 -35.475,6.759 -54.522,6.829c-5.099,0.02 -10.088,-0.84 -15.217,-0.83l-0.11,0l-18.017,-0.99l-0.08,-3.479c-0.01,-0.78 -0.1,-1.55 -0.24,-2.32c-0.69,-3.739 -2.52,-7.589 -3.66,-11.258c-0.739,-2.39 -1.239,-4.699 -1.459,-7.019c-0.11,0.03 -0.22,0.06 -0.34,0.09l-3.75,1l-0.88,-3.78c-0.479,-2.079 -0.979,-4.249 -1.429,-6.469l-0.2,0.87l-3.91,-1.3c-2.659,-0.889 -4.959,-2.319 -3.799,-5.579c0,-0.11 -0.02,-0.23 -0.03,-0.31c-1.57,-12.238 -1.99,-24.646 -1.96,-36.974l0,-0.14l1.74,-41.693l0.01,-0.12c2.76,-25.686 4.779,-51.652 10.028,-76.977l5.759,-27.826c0.34,-2.42 -0.11,-6.809 -0.309,-9.248c-0.43,-5.33 -1,-10.659 -1.55,-15.968c-0.8,-7.649 -1.89,-15.957 -1.99,-23.626c-0.04,-3.31 -0.07,-2.97 -2.3,-5.159c-5.579,-5.449 -11.098,-10.819 -15.797,-17.088c-3.319,-4.419 -6.259,-9.168 -8.929,-14.027l0,3.909l-5.269,-7.379c-1.949,11.578 -5.419,23.606 -8.148,34.565c-0.99,3.919 -3.57,13.008 -2.67,17.097c0.52,2.37 1.52,4.849 2.14,7.269c1.489,5.879 2.209,12.148 2.709,18.177l0.44,5.319l-5.149,-1.38c-0.82,-0.21 -1.59,-0.52 -2.31,-0.9c1.02,2.78 1.94,5.39 2.62,8.539c1.72,7.939 2.01,16.727 2.01,24.816l0,3.749l-8.319,0l0,-3.749c0,-3.609 -1.11,-4.379 -3.09,-6.079c1.11,8.879 0.35,25.756 -5.369,29.945l-4.589,3.36l-1.29,-5.53c-1.269,-5.419 -1.669,-9.448 -2.969,-13.377c-0.06,0.57 -0.14,1.129 -0.21,1.689c-2.6,18.347 -8.239,38.634 -14.848,55.931l-26.825,70.189c-1.64,4.279 -2.99,8.839 -4.43,13.198c-1.32,3.989 -3.609,11.678 -5.829,15.077c-1.74,2.68 -3.629,6.219 -6.079,8.269c-3.689,3.1 -10.458,3.9 -15.077,4.659c-9.479,1.57 -18.347,4.09 -27.026,8.199c-4.169,1.98 -10.128,5.699 -14.548,6.429c-2.749,0.45 -9.258,-0.96 -12.158,-1.44c-6.009,-0.98 -12.098,-1.779 -18.197,-1.839c-2.619,-0.02 -5.249,0.1 -7.849,0.449c-10.288,1.38 -30.865,4.44 -38.193,-4.759c-2.15,-2.699 -3.08,-5.429 -3.14,-8.108c-4.559,3.849 -9.768,6.748 -15.957,7.658c-8.299,1.22 -22.667,-0.99 -21.757,-12.278l0.01,-0.15l0.02,-0.15c0.6,-3.649 2.79,-6.059 4.769,-8.968l0.12,-0.17l13.448,-15.808l0.05,-0.05c6.439,-6.948 13.398,-13.097 21.757,-17.647c2.079,-1.14 3.679,-2.369 5.939,-3.339c20.616,-8.879 45.992,-3.46 67.059,1.33c10.398,2.359 17.697,4.119 27.925,3.619c1.47,-5.949 2.85,-10.828 3.3,-17.497c0.58,-8.769 2.08,-18.097 3.419,-26.796c1.38,-8.868 2.79,-18.627 4.99,-27.305c4.099,-16.208 8.548,-32.365 13.907,-48.213l0.05,-0.14l13.198,-34.334l0.09,-0.16c5.559,-11.098 10.698,-22.826 13.808,-34.874c1.83,-7.049 1.95,-16.808 2.13,-24.117c0.16,-7.088 0.14,-14.227 0.5,-21.296c0.11,-2.1 0.619,-3.77 0.769,-5.749c0.16,-2.12 -0.05,-4.21 0.18,-6.399l3.94,-33.015c1.969,-14.398 3.929,-28.805 5.919,-43.203c1.59,-11.488 3.189,-22.976 4.859,-34.454c0.68,-4.62 1.28,-9.829 2.14,-14.678l3.819,-8.909l25.736,-11.048l-1.14,6.599c3.739,-1.35 7.549,-2.639 11.228,-3.939c5.849,-2.08 11.698,-4.15 17.547,-6.199l14.408,-7.199l-0.59,3.829l9.559,-5.699l0.64,6.159c9.328,-3.039 29.155,-18.897 33.634,-22.616c5.439,-4.529 20.747,-17.467 28.706,-15.648c1.529,0.35 2.699,1.12 3.539,2.15c4.359,-3.109 10.058,-7.359 11.128,-9.048c1.34,-2.78 2.77,-9.489 3.57,-12.648c1.159,-4.6 -9.979,-13.928 -8.899,-18.537l1.11,-1.78c12.558,2.979 16.897,4.029 23.896,9.568c8.019,6.359 18.117,17.917 24.226,33.125c10.218,25.476 5.369,46.163 4.779,72.098c-0.2,8.639 0.3,17.128 2.44,25.526c1.48,5.849 8.609,25.166 12.348,29.296c8.659,9.568 28.415,16.597 40.383,21.166c10.809,4.119 22.517,8.379 32.455,14.298c1.72,1.02 6.559,4.849 9.619,6.719c1.659,-2.26 3.959,-3.67 6.109,-5.979c5.609,-6.059 11.008,-14.498 15.497,-21.447c4.799,-7.439 9.399,-14.997 13.948,-22.586c4.149,-6.929 7.479,-15.128 10.328,-22.677c3.73,-9.878 6.979,-19.986 9.999,-30.095c5.719,-19.167 11.248,-39.733 14.907,-59.41c2.76,-14.808 4.499,-29.145 5.559,-44.153c0.87,-12.328 1.59,-24.556 2.89,-36.854c1.66,-15.868 1.73,-32.365 1.21,-48.302c-0.55,-16.628 -1.8,-33.505 -4.08,-49.982c-2.949,-21.277 -5.169,-43.543 -9.518,-64.54c-4.739,-22.796 -13.108,-45.252 -21.257,-67.009l-19.457,-40.234c-13.038,-21.966 -25.815,-41.353 -44.003,-59.51c-5.999,-5.989 -11.628,-12.668 -18.347,-17.867l-0.14,-0.11l-12.038,-10.228c-8.198,-6.109 -15.637,-14.728 -26.875,-13.228c-18.957,2.539 -22.867,9.328 -37.524,19.537c-5.869,4.089 -15.068,7.758 -22.217,8.348l-4.419,0.37l0.1,-1.2c-2.819,1.71 -5.769,3.6 -8.199,4.59c-10.158,4.129 -21.786,7.139 -32.824,6.709c-2.88,-0.11 -5.739,-0.53 -8.549,-1.2c-7.899,-1.87 -16.047,-5.859 -22.296,-11.068c-4.26,-3.54 -10.429,-10.129 -8.049,-16.238c0.94,-2.419 2.979,-3.959 5.359,-4.799c5.189,-1.83 12.768,-1.63 18.547,-2.87c12.668,-2.709 25.246,-9.768 35.954,-16.807c1,-0.65 5.539,-3.429 6.259,-4.319c1.38,-1.72 2.42,-3.25 3.98,-4.959c9.318,-10.239 22.796,-16.208 36.124,-19.897l-3.6,-4.499l16.738,-2.66l11.538,0l0.16,0.01c24.726,2.11 46.392,16.867 66.309,30.455c6.279,4.289 13.358,11.068 18.967,16.277c5.149,4.77 10.438,9.749 15.208,14.898l0.09,0.1l32.304,40.414l32.885,54.861c8.379,13.957 15.198,31.495 20.867,46.762c5.449,14.658 10.528,29.695 14.807,44.733c0.8,2.799 1.81,5.349 2.46,8.219c4.229,18.657 8.419,37.084 11.628,55.951c2.92,17.087 4.519,34.324 6.439,51.531c0.7,6.279 -0.51,12.688 0.33,18.807c1.71,12.478 -0.23,25.806 -0.18,38.404c0.04,12.138 -2.25,23.636 -3.169,35.634c-0.86,11.238 -2.09,22.557 -3.49,33.745c-1.44,11.488 -2.999,24.216 -5.849,35.424c-0.69,2.74 -1.53,5.229 -1.98,8.049c-0.49,2.949 -1.149,5.359 -2.009,8.209c-1.54,5.109 -1.62,10.888 -2.44,16.177c-1.26,8.129 -3.699,15.637 -5.699,23.566c-3.24,12.858 -5.689,25.956 -9.958,38.534c-3.28,9.668 -6.029,19.517 -9.199,29.225c-12.178,37.314 -28.135,73.658 -53.321,104.133c-0.94,1.14 -1.67,1.74 -2.67,2.64c-0.22,0.62 -0.41,1.66 -0.53,2.21c-1.66,7.648 -4.809,14.727 -7.789,21.916c-7.218,17.367 -17.987,33.965 -28.405,49.572c-4.459,6.669 -9.079,13.218 -13.048,20.197Zm-171.792,-4.469l66.419,-40.474c0,0 23.166,-37.684 23.476,-42.623c0.31,-4.949 -10.508,-33.675 -24.716,-37.694c-14.207,-4.009 -54.991,-2.78 -56.531,3.399c-1.539,6.179 -10.188,39.234 -9.888,45.723c0.31,6.489 1.24,71.669 1.24,71.669Zm93.845,103.003c8.588,-6.409 19.247,-15.598 23.716,-18.947c8.159,-6.109 13.658,-9.479 24.506,-9.149c5.339,0.16 8.559,1.61 13.308,3.41c0.71,0.26 1.31,0.49 1.839,0.67c-1.819,-1.42 -3.569,-2.83 -4.669,-4.16c-0.95,-1.139 -1.64,-2.269 -2.629,-3.309l-10.529,-10.558l-0.1,-0.12c-9.588,-11.468 -21.456,-23.916 -25.236,-38.744c-2.499,-9.848 -2.799,-16.087 -1.169,-26.236c3.269,-20.377 9.948,-39.753 17.317,-58.94c-0.16,-0.02 -0.31,-0.05 -0.47,-0.09c-0.53,-0.1 -1.42,-0.36 -1.98,-0.43c-1.66,0.82 -8.718,7.479 -9.968,8.608c-2.81,2.52 -5.999,4.46 -8.939,6.669l-24.826,19.407l-0.07,0.05c-5.059,3.59 -10.618,9.299 -15.057,13.698c-4.969,4.919 -9.809,9.958 -14.738,14.928c-5.779,5.829 -7.829,7.628 -5.039,15.217c4.149,11.288 8.768,33.265 4.959,47.232c1.33,-0.03 2.85,0.16 5.379,0.79c2.73,0.68 4.679,1.26 6.839,2.2c2.65,-2.73 5.779,-3.679 10.298,-2.73c7.309,1.56 25.306,8.079 25.826,16.808c0.32,5.429 -3.559,13.708 -5.929,18.557c-0.86,1.729 -1.739,3.459 -2.639,5.169Z"/><path d="M418.884,3.749l11.088,0c23.926,2.04 45.363,16.758 64.519,29.826c6.109,4.169 25.726,22.186 33.525,30.625l32.055,40.103l32.765,54.641c12.488,20.907 28.115,65.44 35.284,90.596c0.91,3.189 1.62,4.579 2.4,8.018c4.559,20.097 8.038,34.905 11.598,55.751c2.909,17.118 4.489,34.175 6.409,51.322c0.7,6.229 -0.51,12.718 0.33,18.907c1.549,11.248 -0.26,26.516 -0.21,37.894c0.04,12.628 -2.28,23.986 -3.15,35.334c-1.31,17.068 -5.339,53.152 -9.238,68.529c-0.84,3.32 -1.48,4.829 -2.05,8.369c-0.53,3.269 -0.97,4.659 -1.9,7.729c-1.599,5.319 -1.619,10.668 -2.559,16.687c-1.34,8.649 -3.66,15.418 -5.629,23.236c-3.23,12.848 -5.67,25.896 -9.869,38.234c-3.339,9.858 -5.939,19.227 -9.218,29.265c-12.158,37.264 -27.916,72.979 -52.632,102.914c-2.909,3.509 -2.859,1.25 -3.989,6.439c-1.6,7.419 -4.709,14.347 -7.589,21.276c-6.969,16.798 -18.007,33.885 -28.055,48.922c-5.29,7.929 -10.479,15.188 -14.918,23.567c6.639,3.509 12.788,11.738 17.317,17.977c8.919,12.308 13.458,28.495 18.877,42.853c9.389,24.836 18.787,27.325 35.014,43.573c2.49,2.499 6.699,7.119 3.94,11.538c-5.489,8.788 -17.357,8.409 -27.036,8.309c-9.258,-0.09 -7.629,0.859 -12.688,4.949c-6.199,5.009 -19.377,11.178 -19.377,-4.13c-5.289,3.53 -11.318,8.939 -19.267,9.609c-10.838,0.92 -15.247,-2.1 -14.417,-12.018c-3.65,1.929 -5.939,4.279 -9.579,6.469c-9.538,5.769 -27.595,10.308 -34.534,-0.05c-8.669,4.149 -22.696,4.799 -28.576,-4.32c-1.099,-1.719 -1.009,0.6 -1.109,-3.699c-2.14,1.57 -10.789,13.878 -14.618,17.447c-14.798,13.748 -34.174,5.749 -51.972,5.819c-5.379,0.02 -8.938,-0.85 -15.217,-0.82l-14.438,-0.799c-0.2,-9.029 -7.739,-16.308 -4.809,-28.866c-3.659,2.45 -1.45,3.7 -5.619,4.809c-1.41,-6.049 -3.07,-13.917 -3.21,-20.036c-2.749,2.009 -3.919,6.609 -4.809,10.418c-2.649,-0.88 -0.9,0.16 -1.28,-2.8c-1.549,-12.098 -1.959,-24.536 -1.929,-36.484l1.729,-41.563c2.73,-25.496 4.94,-51.792 9.969,-76.618l5.779,-27.925c0.98,-6.389 -3.64,-38.124 -3.79,-49.552c-0.06,-4.859 -0.869,-5.279 -3.439,-7.789c-5.439,-5.319 -10.778,-10.488 -15.417,-16.667c-9.179,-12.238 -14.948,-26.756 -15.688,-27.606l0,8.019l-4.009,-5.609c-1.07,12.868 -6.149,31.025 -9.299,43.613c-6.629,26.496 -0.59,11.688 2.09,43.763c-5.009,-1.33 -5.959,-6.929 -9.629,-9.619c0,15.598 7.219,10.989 7.219,45.703l-0.8,0c0,-6.189 -2.429,-6.849 -5.819,-10.228c-2.669,-2.66 -4.809,-5.399 -7.818,-7.409c0.29,3.529 1.749,5.839 2.609,9.408c1.53,6.319 1.16,25.716 -3.409,29.066c-2.58,-11.039 -1.98,-15.498 -8.829,-24.046c-0.89,3.799 -1.14,8.458 -1.74,12.687c-2.479,17.618 -8.318,38.984 -14.627,55.122l-26.826,70.188c-2.17,5.699 -7.589,24.026 -9.898,27.566c-5.589,8.578 -4.29,8.898 -18.627,11.278c-26.086,4.319 -34.765,13.488 -41.574,14.618c-3.579,0.59 -22.406,-4.95 -38.073,-2.85c-9.969,1.34 -28.936,3.949 -34.765,-3.369c-5.369,-6.739 -0.27,-13.748 4.649,-18.707c5.799,-5.849 10.029,-6.199 21.077,-6.199l-13.658,-1.72c-3.059,-0.17 -1.949,-0.58 -3.449,0.09c-5.969,2.669 -14.468,22.236 -31.205,24.706c-6.239,0.92 -18.107,-0.29 -17.467,-8.249c0.46,-2.799 2.799,-5.459 4.169,-7.459l13.268,-15.597c6.159,-6.659 12.768,-12.538 20.786,-16.897c2.43,-1.32 3.06,-2.08 5.64,-3.19c19.486,-8.398 44.112,-3.139 64.739,1.54c12.468,2.84 19.367,4.559 31.765,3.529c1.74,-7.458 3.409,-11.458 4.039,-20.816c0.73,-11.008 5.839,-43.733 8.299,-53.432c4.079,-16.107 8.539,-32.274 13.828,-47.922l13.138,-34.164c5.589,-11.149 10.918,-23.317 14.087,-35.615c2.81,-10.838 2.07,-33.094 2.75,-46.152c0.17,-3.37 0.53,-2.65 0.76,-5.659c0.16,-2.1 -0.06,-4.12 0.16,-6.249l3.939,-32.945c3.54,-25.936 12.198,-89.825 13.778,-96.594l-0.16,0l1.71,-2.07l18.537,-7.949l-1.09,6.249c3.869,-1.54 35.074,-12.508 35.074,-12.508l8.119,-4.059l-0.7,4.519l11.358,-6.759l0.42,4.13c0,0 8.189,2.009 39.384,-23.937c31.205,-25.945 27.515,-10.178 27.515,-10.178c0,0 -13.757,-53.621 -12.188,-56.871c1.56,-3.259 36.254,15.988 36.254,15.988c10.539,0.88 26.406,28.285 29.806,36.754c13.977,34.854 -1.12,64.949 7.058,97.154c1.82,7.129 9.229,26.486 13.218,30.885c14.298,15.808 52.012,23.246 73.698,36.174c3.49,2.07 10.049,7.999 13.368,8.269c0.99,-3.699 4.58,-5.569 7.029,-8.209c8.679,-9.358 23.276,-33.584 29.915,-44.653c14.838,-24.746 31.425,-90.395 35.705,-113.421c6.449,-34.595 5.149,-49.502 8.488,-81.307c3.08,-29.265 1.08,-70.659 -2.879,-99.194c-8.809,-63.64 -7.119,-68.639 -31.045,-132.509l-19.597,-40.543c-13.548,-22.827 -25.856,-41.614 -44.653,-60.38c-6.089,-6.079 -11.908,-12.918 -18.707,-18.178l-12.138,-10.318c-9.298,-6.899 -16.827,-15.727 -29.705,-13.998c-20.187,2.7 -24.206,9.759 -39.184,20.177c-5.159,3.59 -13.778,7.139 -20.377,7.679c0.29,-3.44 -0.11,-1.44 1.6,-3.999c-3.659,0.979 -10.758,6.219 -15.217,8.028c-9.439,3.83 -20.677,6.849 -31.265,6.439c-22.007,-0.86 -44.483,-21.766 -32.435,-26.006c8.948,-3.159 20.827,2.55 55.311,-20.076c9.998,-6.569 4.909,-3.25 10.958,-9.899c9.959,-10.938 25.276,-16.807 39.924,-20.217l-3.21,-4.009l10.059,-1.61Zm-45.343,770.426l0,0.8l0.93,-0.67l-0.93,-0.13c1.47,-6.349 -2.18,-4.139 -4.019,-12.028c2.659,0.62 8.638,3.829 12.838,4.809l-12.378,18.897c-2,3.34 -10.509,18.137 -12.488,19.587c-0.55,-6.609 -1.85,-14.947 -2.41,-21.646c3.319,2.429 2.41,4.959 2.41,10.418c6.159,-4.509 4.769,-19.697 4.009,-28.855c4.679,2.469 6.809,6.049 12.038,8.818Zm124.31,154.725c-7.409,0.61 -5.609,1.81 -12.748,-0.89c-3.749,-1.409 -6.869,-3.009 -12.088,-3.169c-10.798,-0.32 -15.997,3.799 -22.136,8.408c-6.709,5.02 -28.826,24.297 -35.635,26.116c0.61,-2.289 14.988,-25.106 14.478,-33.684c-0.38,-6.429 -18.767,-12.478 -22.856,-13.348c-4.88,-1.04 -6.699,1.11 -8.469,3.739c-3.339,-1.769 -4.629,-2.209 -8.789,-3.239c-5.719,-1.42 -5.369,-0.39 -10.458,0.03c7.449,-11.118 1.91,-38.364 -2.51,-50.402c-2.659,-7.239 -2.809,-10.378 5.9,-19.157c6.169,-6.219 22.996,-23.876 30.295,-29.045l24.746,-19.357c2.889,-2.17 6.109,-4.13 8.738,-6.499c15.398,-13.868 8.939,-8.619 20.257,-8.619c-7.839,20.097 -15.388,40.804 -18.927,62.86c-1.69,10.498 -1.13,15.918 1.1,24.706c3.559,13.968 15.367,26.366 24.476,37.264l10.408,10.438c1.59,1.65 1.61,2.06 2.86,3.56c1.23,1.49 9.668,7.759 11.358,10.288Z"/><path d="M379.95,27.806"/><path d="M390.378,67.889"/><path d="M358.293,734.092"/><path d="M369.522,762.147"/><path d="M354.284,930.5c0,-2.74 5.699,-29.245 5.629,-44.073c-0.02,-5.199 0.69,-6.929 0.82,-11.218c0.12,-4.179 -0.04,-8.629 -0.03,-12.858c0.03,-7.939 -2.869,-44.273 -2.07,-46.963l13.568,-23.306c4.569,-8.448 9.769,-15.757 14.968,-23.526c4.719,0.4 9.768,2.46 15.117,3.34l49.052,6.288c-28.355,21.457 -63.509,45.303 -80.987,75.378c-1.589,2.74 -6.568,12.308 -7.248,15.208c1.439,-1.05 5.849,-6.669 6.419,-8.819c5.759,4.22 7.188,29.066 7.228,36.884c0.04,6.769 -1.189,8.549 -1.609,13.618c-16.018,0 -13.258,14.488 -20.857,20.047Z" style="fill:#3e372f;"/><path d="M354.284,930.5c0,-2.74 5.699,-29.245 5.629,-44.073c-0.02,-5.199 0.69,-6.929 0.82,-11.218c0.12,-4.179 -0.04,-8.629 -0.03,-12.858c0.02,-5.389 -1.31,-23.856 -1.92,-36.014c6.219,-9.809 13.658,-19.547 23.157,-30.655c4.459,-5.199 14.297,-9.829 7.908,-10.109c-0.08,0 5.23,-6.869 10.959,-13.947c0.49,0.1 0.979,0.19 1.479,0.27l49.052,6.288c-28.355,21.457 -63.509,45.303 -80.987,75.378c-1.589,2.74 -6.568,12.308 -7.248,15.208c1.439,-1.05 5.849,-6.669 6.419,-8.819c5.759,4.22 7.188,29.066 7.228,36.884c0.04,6.769 -1.189,8.549 -1.609,13.618c-16.018,0 -13.258,14.488 -20.857,20.047Z" style="fill:#2d2922;"/><path d="M358.293,940.118c-1.819,-3.799 2.76,-8.148 6.429,-15.217c3.9,-7.519 4.53,-11.378 12.018,-9.629l-13.637,18.427c-4.66,6.409 -1.62,5.14 -4.81,6.419Z" style="fill:#2d2922;"/><path d="M369.522,943.328c-3.31,0 -3.29,-0.37 -5.609,-1.61c0.749,-3.199 2.309,-4.429 4.239,-6.979c20.547,-27.155 9.598,-17.067 28.645,-17.067c-1.769,2.64 -3.339,4.719 -5.299,7.539c-7.119,10.728 -8.369,18.117 -21.976,18.117Z" style="fill:#2d2922;"/><path d="M497.851,928.9"/><path d="M354.284,930.5"/><path d="M427.272,978.602c-9.998,0 -15.237,-0.71 -15.237,-7.219c0,-4.869 9.478,-9.488 15.407,-13.458c8.089,-5.409 16.898,-13.437 24.086,-20.016c16.148,-15.198 26.626,-7.539 32.695,-7.409l0,1.61c-9.548,0.79 -29.935,21.306 -35.424,28.725c-4.889,6.609 -4.799,6.859 -12.568,13.088c-1.87,1.5 -6.099,4.679 -8.959,4.679Zm127.53,-27.255c4.009,3.339 8.188,6.159 10.648,10.198c1.32,2.17 1.38,2.559 1.38,5.829c-6.989,4.679 -12.978,3.209 -24.056,3.209c1.02,-1.939 1.759,-3.789 2.949,-5.859c1.49,-2.589 2.58,-3.139 2.66,-6.968c-4.33,2.899 -15.468,24.026 -26.516,23.366c-5.159,-0.3 -3.319,-6.749 -2.65,-8.409l16.338,-21.366c-6.259,1.669 -27.176,30.085 -43.333,30.525c-13.658,0.38 -6.499,-13.188 -4.01,-15.318c7.789,-6.689 10.699,-11.138 19.597,-18.087c1.95,-1.52 4.04,-2.64 5.289,-4.339c-18.227,4.239 -35.894,32.644 -50.471,34.534c-9.279,1.21 -13.828,5.759 -22.517,-0.06c5.259,-7.859 11.028,-11.128 15.698,-17.177c9.068,-11.738 22.396,-25.656 37.904,-27.886c10.198,-1.479 12.968,1.93 15.597,2.72c2.62,0.78 4.509,-0.75 6.089,3.509c0.02,0.05 0.04,0.25 0.1,0.35c17.717,0 16.717,3.85 20.247,6.229c3.729,2.51 4.899,-0.73 15.357,4.81c3.49,1.839 2.83,2.819 3.7,0.19Z" style="fill:#4d443a;"/><path d="M554.802,951.347c4.009,3.339 8.188,6.159 10.648,10.198c1.32,2.17 1.38,2.559 1.38,5.829c-6.989,4.679 -12.978,3.209 -24.056,3.209c1.02,-1.939 1.759,-3.789 2.949,-5.859c1.49,-2.589 2.58,-3.139 2.66,-6.968c-4.33,2.899 -15.468,24.026 -26.516,23.366c-5.159,-0.3 -3.319,-6.749 -2.65,-8.409l3.9,-5.099c0.26,1.36 1.17,2.26 3.209,2.26c17.288,0 17.438,-20.437 24.966,-13.598c3.24,2.949 0.13,-1.64 -3.639,-6.789c1.03,0.44 2.17,0.99 3.449,1.67c3.49,1.839 2.83,2.819 3.7,0.19Zm-34.305,13.017c-8.638,8.199 -19.207,17.258 -28.275,17.508c-13.658,0.38 -6.499,-13.188 -4.01,-15.318c1.62,-1.39 3.03,-2.689 4.32,-3.929c-0.3,1.729 -0.32,3.769 0.24,6.119c0.64,2.679 20.556,-1.63 23.856,-2.55c1.34,-0.38 2.699,-1.1 3.869,-1.83Zm-30.555,-5.249c-9.798,8.879 -19.047,18.477 -27.315,19.547c-9.279,1.21 -13.828,5.759 -22.517,-0.06c3.98,-5.949 8.249,-9.268 12.118,-13.148c-0.03,1.61 0.08,3.24 0.42,4.73c1.02,4.549 17.757,-2.35 20.857,-3.63c7.779,-3.219 12.998,-5.679 16.437,-7.439Z" style="fill:#4d443a;"/><path d="M347.875,948.137c1.5,-2.839 3.11,-5.409 3.2,-9.618l3.209,6.409c-3.179,0.849 -3.239,2.359 -6.409,3.209Z"/><path d="M552.392,948.937"/><path d="M553.192,949.747"/><path d="M554.002,950.547"/><path d="M554.802,951.347"/><path d="M349.975,498.76c-11.068,66.589 -15.448,15.687 -41.224,29.985c-4.989,3.129 -8.618,4.869 -11.188,5.839c-5.749,3.129 -3.039,2.589 -8.058,5.949c-0.85,-3.68 -0.85,-1.94 0,-5.609c-3.4,0.9 -6.179,3.819 -10.419,4.799l0,-2.4c-13.088,6.919 -16.687,1.89 -30.465,9.179c-24.196,31.295 -0.71,77.707 1.43,91.035c-2.51,-4.309 -25.176,-45.642 -13.518,-82.357c-2.989,1.43 -8.119,-17.097 -15.117,3.07l-9.419,79.307c-4.049,18.767 -3.719,33.705 -5.869,49.452c-1.85,13.438 -0.5,53.872 -2.93,66.03c-1.179,5.899 -2.549,2.819 -5.189,6.768c-1.25,1.86 -1.419,2.92 -2.419,4.86c-13.268,25.546 -11.768,21.886 -22.267,53.101c-2.429,7.219 -4.019,13.588 -6.199,21.067c-10.288,35.384 -10.558,47.342 -14.147,82.046c-1,9.329 -5.56,24.846 -15.248,25.656c1.45,-2.169 2.18,-2.019 3.449,-4.569c0.92,-1.84 1.22,-3.279 2.17,-5.059c-4.409,0 -5.909,1.3 -11.108,0.7l-30.115,-5.189c-31.055,-7.159 -47.143,-6.769 -68.909,11.468c-1.65,1.38 -1.61,0.92 -3.15,2.459l-8.448,9.989c-3.78,4.279 -11.098,11.848 -12.218,16.657c5.389,1.25 9.388,3.43 17.627,-0.83c5.509,-2.849 26.216,-27.215 35.314,-29.635c-3.339,4.969 -5.609,5.759 -6.419,8.819c10.289,0 17.107,0.699 25.616,2.459c3.759,0.77 6.919,1.82 10.948,2.67c4.67,0.98 7.619,0.51 9.959,3.689c-2.99,1.43 -29.785,-0.64 -39.274,0.03c-13.908,0.97 -22.366,17.297 -12.148,20.087c7.889,2.16 18.327,-0.19 25.816,-0.81c38.444,-3.189 29.475,7.619 48.062,-1.67c6.869,-3.439 11.608,-5.579 19.727,-8.338c11.138,-3.79 17.617,-1.28 25.186,-1.28c2.879,-5.439 2.399,-2.98 2.399,-11.228l2.41,0c0,-4.03 1.49,-7.709 2.39,-11.239l19.836,-48.312c1.98,-8.348 3.93,-12.048 6.749,-20.516l14.038,-40.484c1.82,-5.549 9.919,-39.684 9.919,-43.793c6.069,2.19 9.068,14.988 12.038,19.237c0,-7.649 0.959,-9.398 -0.21,-17.427c-0.71,-4.909 -3,-9.559 -3,-15.438c7.579,0.17 10.318,8.089 16.038,9.619c-2.02,-4.21 -3.21,-12.958 -5.62,-18.427l-8.008,-16.048c3.429,1.82 1.379,1.29 4.009,3.21c0.55,-6.689 2.64,-5.139 -1.68,-10.348c-2.189,-2.62 -5.229,-4.39 -5.539,-8.089c5.789,3.059 12.608,10.528 16.038,12.828c-0.69,-8.289 -4.9,-16.318 -5.609,-24.856c3.079,0.65 2.099,1.659 3.259,-2.28l3.939,-16.177c4,-15.358 5.989,-26.056 6.269,-33.795c0.14,-3.689 -3.729,-17.237 -7.088,-30.715c3.059,0 8.808,22.267 13.667,29.255c0.25,-1.069 1.13,-3.669 1.42,-4.199c1.23,-2.27 0.03,-1.53 2.59,-2.22c0.32,14.438 19.746,40.384 31.285,48.103c-1.45,-23.377 -11.079,-82.087 -1.54,-113.182c-1.31,17.107 1.94,111.032 10.358,123.61l-2.409,0c0,13.838 2.479,26.266 3.219,40.074c0.19,3.519 -0.01,7.668 -0.03,11.248c-0.01,4.659 0.63,5.869 0.83,9.598c0.36,6.779 0,14.738 0,21.647l-0.81,0c0,-8.289 -2.4,-14.978 -2.4,-22.447l-0.809,0c0,7.149 -1.73,12.748 -2.75,19.697c-1.96,13.358 -7.389,46.343 -7.679,58.061l-2.859,41.233c-1.82,11.988 0.46,29.575 0.46,42.153c2.169,-1.599 2.409,-3.469 2.409,-7.219l2.4,1.61c0,9.469 1.61,15.178 1.61,24.046c3.389,-3.369 3.119,-3.739 6.409,-4.009c0,9.378 1.129,15.118 3.369,23.086c0.67,2.36 1.7,4.23 2.25,6.579c16.697,0 29.855,0.31 44.163,2.36c6.998,1 14.387,1.67 21.116,-0.44c16.787,-5.269 46.203,-54.761 46.203,-67.659c-5.029,-3.37 -14.608,-6.569 -20.847,-8.019c-5.729,8.549 -9.638,12.558 -15.717,22.776c-3.07,5.17 -8.929,16.238 3.009,12.658c10.458,-3.139 15.038,-12.078 15.918,-22.606c4.819,0.4 7.218,3.879 5.419,6.839l-1.79,3.969c-3.659,10.639 -15.268,20.717 -26.566,17.747c-4.479,-1.179 -7.579,-5.829 -5.139,-10.918c-8.998,2.09 -8.848,2.01 -17.047,-0.67c-7.489,-2.449 -6.569,3.08 -13.428,4.68c1.45,6.229 2.73,7.408 0.49,14.927c-0.92,3.1 -2.89,9.559 -6.109,10.728c1.97,-4.109 3.549,-16.737 2.41,-21.646c-3.01,4.629 -4.04,8.669 -6.419,10.418c0.26,-3.159 0.919,-3.069 1.899,-6.119l7.539,-30.145c0.91,-4.289 1.36,-7.819 2.26,-12.168c1.859,-9.039 1.699,-18.077 3.079,-27.386c0.72,-4.819 0.08,-9.668 0.8,-14.437c2.74,-18.117 -1.93,-52.012 -1.92,-71.709c0.01,-9.258 -1.489,-17.997 -1.599,-28.065c-0.04,-3.879 -0.54,-4.189 -0.79,-7.229l-0.84,-20.797c2.23,3.21 4.679,14.128 4.819,17.618c0.21,4.879 -0.19,13.567 3.38,16.697c0.839,0.74 -0.59,1.54 0.799,0.15c2.56,-2.56 -0.09,-11.448 -0.16,-15.248c-0.06,-3.279 0.32,-2.469 -0.759,-4.989c-4.17,-9.718 5.599,0.75 9.568,1.8c-2.29,-4.319 -4.409,-7.819 -6.699,-12.548c-3.309,-6.809 -5.299,-13.838 -8.109,-20.767c-6.049,-14.887 6.349,0.15 9.189,2.05c-1.02,-4.399 -6.769,-16.977 -9.349,-21.917c-1.409,-2.679 -2.599,-3.249 -2.679,-6.938c2.589,1.369 5.199,2.899 8.818,3.209c-1.499,-6.469 -9.698,-15.597 -9.498,-21.547c0.91,-26.575 17.807,-71.278 25.366,-98.884c12.818,-46.782 5.789,-39.283 5.789,-79.197c12.528,50.182 -8.789,100.204 -10.868,108.593c-2.28,9.208 -4.65,16.957 -6.949,25.925c-15.038,58.511 -11.948,35.775 -1.76,61.421l5.139,10.898c-4.679,-0.39 -6.269,-3.7 -10.428,-4.809c2,7.478 11.978,11.358 14.438,40.883c-4.71,-1.7 -6.839,-12.818 -11.229,-16.027c0.84,3.599 4.99,18.307 7.569,21.286c1.94,2.24 16.848,7.479 20.647,7.789c6.169,0.51 1.35,1.41 14.528,3.559c6.009,0.98 10.298,1.89 16.467,2.78c10.798,1.56 44.163,3.949 50.672,7.069c1.949,-3.68 3.689,-7.539 5.609,-11.228l12.308,-21.367c8.598,-15.877 10.788,-7.559 -2.42,16.017c-7.279,13.008 -24.376,55.791 -28.135,74.498c-5.269,26.266 -0.58,37.854 12.458,53.702l16.817,19.257c10.908,10.778 14.708,19.157 25.716,24.816c1.58,0.81 0.96,0.51 2.459,1.539c8.209,5.619 7.319,1.86 14.068,3.58c10.049,2.569 8.689,4.539 11.928,5.709c2.85,1.02 3.76,0.64 6.749,2.08c2.34,1.119 3.54,2.339 5.859,2.959l-12.958,-15.107c-9.668,-11.799 -15.297,-39.044 -25.875,-56.711c-1.86,-3.12 -13.338,-18.247 -16.508,-20.377c-4.069,2.979 -5.659,11.028 -8.019,14.428c0,-11.209 5.49,-23.027 11.069,-31.425c14.137,-21.337 37.334,-56.151 43.473,-80.807c3.089,-12.418 4.819,-30.655 1.929,-44.423c-0.5,-2.4 -0.929,-2.89 -1.129,-5.279c2.809,2.059 4.959,11.498 5.689,15.157c1.359,6.789 1.529,9.949 1.529,18.517c3.35,-2.249 16.458,-23.516 20.167,-30.355l13.758,-27.935l19.707,-54.851c12.198,-36.515 26.295,-96.795 30.445,-134.729c4.149,-37.984 8.958,-53.671 8.958,-90.445l-0.799,-40.894c-2.11,-39.373 -18.587,-118.85 -34.475,-154.735l-9.648,-24.026c-4.81,-10.608 -16.008,-35.194 -21.487,-44.263c-12.628,-20.896 -18.237,-30.335 -33.165,-50.221c-7.278,-9.709 -13.467,-14.808 -15.467,-17.408c-4.889,-6.399 -26.536,-29.175 -32.185,-33.574l-20.147,-13.528c-21.126,-12.568 -37.024,-18.987 -62.819,-18.987c3.449,2.99 4.599,1.01 5.619,4.809c-7.539,0.17 -26.676,7.219 -33.535,11.378c-11.638,7.069 -3.889,0.64 -5.769,5.46c5.479,0 16.537,-3.21 23.256,-3.21l-26.795,6.889c-3.29,1.02 -2.86,1.74 -5.17,3.639l-13.737,11.129c-11.289,8.548 -34.725,16.827 -50.542,16.827c0.57,6.819 10.698,12.618 16.017,15.257c7.789,3.85 16.357,3.6 26.566,2.45c5.639,-0.64 7.919,-0.84 12.138,-3.1l20.787,-9.688c7.048,-3.139 5.889,-4.759 9.508,-5.719c-0.07,3.279 -0.48,3.479 -1.6,5.609c8.539,-1.99 13.998,-7.839 20.527,-12.358c7.889,-5.449 12.568,-7.369 21.966,-10.908c13.608,-5.109 15.128,-1.89 19.467,-0.99c7.659,1.59 10.709,1.44 19.177,4.889c2.26,0.93 3.65,1.69 5.599,2.42c2.58,0.95 3.52,0.8 5.499,2.519c-4.899,-0.41 -9.538,-2.799 -14.437,-3.209c24.896,19.627 26.076,20.897 48.732,45.093c18.257,19.486 39.953,56.84 50.012,82.276c2.149,5.429 2.079,2.33 5.019,8.629c3.119,6.689 5.519,10.808 8.029,18.427l15.257,64.11c2.77,17.477 9.609,53.421 10.109,69.268l1.939,25.316c0.67,4.42 0.09,8.609 0.68,12.948c3.01,21.957 -5.509,111.592 -10.468,133.479c-2.97,13.078 -6.619,30.175 -10.308,42.603l-16.798,49.752l-17.337,35.584c-6.779,11.258 -13.938,20.697 -21.966,30.955c-2.19,2.81 -4.29,4.399 -5.949,6.869c2.779,4.159 6.588,9.119 8.498,13.948c0.86,2.169 1.06,3.489 1.93,5.299c-2.75,-1 -0.54,0.08 -2.68,-2.14l-16.767,-16.907c-18.227,-17.937 -54.681,-24.146 -75.198,-37.874c1.19,4.459 9.679,14.128 12.028,17.637l0.94,0.13l-0.94,0.67l0,-0.8c-3.869,-1.03 -6.079,-5.389 -8.618,-8.218c-15.468,-17.348 -23.217,-30.805 -29.086,-52.702c-11.628,-43.393 18.187,-76.748 -29.405,-126.939c-2.06,-2.17 -18.557,-5.909 -19.167,-8.199l-3.949,28.945c-1.68,3.95 -31.755,-2.419 -12.738,10.349Z" style="fill:#3e372f;"/><path d="M540.434,943.558c1.82,0.48 2.88,0.46 5.299,1.62c2.34,1.119 3.54,2.339 5.859,2.959l-12.958,-15.107c-9.668,-11.799 -15.297,-39.044 -25.875,-56.711c-1.86,-3.12 -13.338,-18.247 -16.508,-20.377c-4.069,2.979 -5.659,11.028 -8.019,14.428c0,-11.209 5.49,-23.027 11.069,-31.425c14.137,-21.337 37.334,-56.151 43.473,-80.807c3.089,-12.418 4.819,-30.655 1.929,-44.423c-0.2,-0.97 -0.39,-1.63 -0.56,-2.23c-0.469,2.11 -0.979,5.659 -1.529,11.058c-0.42,4.2 -1.73,38.234 -3.65,24.297c-3.709,-26.936 -5.599,12.947 -9.108,23.586c-2.37,7.199 -28.656,68.129 -32.025,56.411c-5.249,-18.247 -25.076,46.622 -11.648,59.47c0.59,-2.12 8.079,-19.217 11.488,-14.668c15.218,20.257 22.866,22.477 32.385,51.442c3.459,10.548 6.409,16.717 10.378,20.477Zm4.249,-233.902c0.83,1.199 1.57,2.969 2.22,4.879c-0.67,-4.34 -1.39,-6.829 -2.22,-4.879Z" style="fill:#2d2922;"/><path d="M307.152,64.24c1.529,6.309 10.808,11.618 15.827,14.097c7.789,3.85 16.357,3.6 26.566,2.45c5.639,-0.64 7.919,-0.84 12.138,-3.1l20.787,-9.688c7.048,-3.139 5.889,-4.759 9.508,-5.719c-0.07,3.279 -0.48,3.479 -1.6,5.609c8.539,-1.99 13.998,-7.839 20.527,-12.358c7.889,-5.449 12.568,-7.369 21.966,-10.908c13.608,-5.109 15.128,-1.89 19.467,-0.99c7.659,1.59 10.709,1.44 19.177,4.889c2.26,0.93 3.65,1.69 5.599,2.42c2.58,0.95 3.52,0.8 5.499,2.519c-4.899,-0.41 -9.538,-2.799 -14.437,-3.209c24.896,19.627 26.076,20.897 48.732,45.093c18.257,19.486 39.953,56.84 50.012,82.276c2.149,5.429 2.079,2.33 5.019,8.629c3.119,6.689 5.519,10.808 8.029,18.427l15.257,64.11c2.77,17.477 9.609,53.421 10.109,69.268l1.939,25.316c0.67,4.42 0.09,8.609 0.68,12.948c3.01,21.957 -5.509,111.592 -10.468,133.479c-2.97,13.078 -6.619,30.175 -10.308,42.603l-16.798,49.752l-17.337,35.584c-6.779,11.258 -13.938,20.697 -21.966,30.955c-2.19,2.81 -4.29,4.399 -5.949,6.869c2.779,4.159 6.588,9.119 8.498,13.948c0.86,2.169 1.06,3.489 1.93,5.299c-0.13,0.19 -0.43,0.07 -0.86,-0.3l0.86,0.3c125.92,-189.709 84.646,-370.28 73.168,-436.23c-9.048,-52.021 -78.917,-170.962 -117.791,-199.578c22.286,-4.039 -34.684,-20.996 -44.083,-28.405c4.249,-17.947 -32.955,8.719 -33.045,8.859c-14.587,22.626 8.199,-19.417 -16.057,5.859c-27.485,28.645 -60.59,26.035 -90.595,18.927Z" style="fill:#2d2922;"/><path d="M382.45,520.056c6.518,45.583 -11.469,88.076 -13.368,95.745c-2.28,9.208 -4.65,16.967 -6.949,25.925c-2.97,11.559 -10.329,30.236 -10.329,43.354c0,1.509 0.33,2.449 1.13,3.699c1.4,2.609 4.02,5.769 7.439,14.368l5.139,10.898c-4.679,-0.39 -6.269,-3.7 -10.428,-4.809c2,7.478 11.978,11.358 14.438,40.883c-4.71,-1.7 -6.839,-12.818 -11.229,-16.027c0.84,3.599 4.99,18.307 7.569,21.286c1.94,2.24 16.848,7.479 20.647,7.789c6.169,0.51 1.35,1.41 14.528,3.559c6.009,0.98 10.298,1.89 16.467,2.78c10.798,1.56 44.163,3.949 50.672,7.069c1.949,-3.68 3.689,-7.539 5.609,-11.228l12.308,-21.367c3.869,-7.149 6.449,-9.388 6.899,-7.539c2.809,-4.099 5.519,-7.309 7.958,-9.078c34.625,-25.156 13.878,-9.469 -19.616,-19.447c-4.33,-1.29 -63.74,-20.687 -23.647,-14.528c0.07,0.01 22.937,1.46 13.548,0.05c-16.997,-2.549 -68.959,-36.954 -74.808,-55.741c-5.039,-16.197 -19.347,-29.805 3.66,-7.949c7.978,7.589 -13.608,-20.796 -10.909,-40.773c5.18,-38.384 2.06,-71.348 -9.228,-81.767c1.13,3.73 1.96,8.079 2.5,12.848Z" style="fill:#2d2922;"/><path d="M308.421,738.631c0.79,8.848 2.06,17.467 2.56,26.716c0.19,3.519 -0.01,7.668 -0.03,11.248c-0.01,4.659 0.63,5.869 0.83,9.598c0.36,6.779 0,14.738 0,21.647l-0.81,0c0,-8.289 -2.4,-14.978 -2.4,-22.447l-0.809,0c0,7.149 -1.73,12.748 -2.75,19.697c-1.96,13.358 -7.389,46.343 -7.679,58.061l-2.859,41.233c-1.82,11.988 0.46,29.575 0.46,42.153c2.169,-1.599 2.409,-3.469 2.409,-7.219l2.4,1.61c0,9.469 1.61,15.178 1.61,24.046c3.389,-3.369 3.119,-3.739 6.409,-4.009c0,9.378 1.129,15.118 3.369,23.086c0.67,2.36 1.7,4.23 2.25,6.579c16.697,0 29.855,0.31 44.163,2.36c6.998,1 14.387,1.67 21.116,-0.44c16.787,-5.269 46.203,-54.761 46.203,-67.659c-5.029,-3.37 -14.608,-6.569 -20.847,-8.019c-5.729,8.549 -9.638,12.558 -15.717,22.776c-3.07,5.17 -8.929,16.238 3.009,12.658c10.458,-3.139 15.038,-12.078 15.918,-22.606c4.819,0.4 7.218,3.879 5.419,6.839l-1.79,3.969c-3.659,10.639 -15.268,20.717 -26.566,17.747l-0.28,-0.08c-0.54,7.009 -3.219,15.758 -14.657,17.968c-4.13,0.799 6.869,-13.458 -2.98,-3.6c-3.669,3.66 -13.298,4.749 -22.296,3.89c-0.32,0.239 -0.66,0.439 -1.02,0.569c0.09,-0.2 0.19,-0.42 0.28,-0.649c-9.349,-1.01 -17.797,-4.13 -17.797,-8.649c0,-16.637 4.759,-15.438 -8.699,-13.138c-4.499,-6.569 5.679,-40.713 -9.218,-26.506c-6.539,6.229 12.798,-153.235 5.969,-173.872c-2.04,-6.149 -3.71,-11.408 -5.17,-15.557Z" style="fill:#2d2922;"/><path d="M242.012,610.122c3.22,12.218 7.209,22.276 8.039,27.415c-1.04,-1.79 -5.539,-9.938 -9.629,-21.486c0.84,12.798 1.25,32.424 1.25,38.483c0,16.358 2.5,30.326 -6.739,9.029c-0.75,4.159 -0.37,19.897 -0.37,24.646c0,9.908 2.58,19.027 4.49,26.736c-1.75,-3.15 -3.27,-5.249 -4.38,-5.699c-0.42,4.579 -1.209,42.213 -0.54,46.782c2.66,17.887 -3.209,-6.559 -4.739,13.708c-1.839,24.456 -0.41,4.729 -7.719,2.859c-1.479,-0.37 -13.687,43.153 -14.487,47.963c-4.449,26.655 -2.11,17.087 -9.269,13.597c-0.98,5.6 -0.53,12.338 -1.469,17.918c-5.1,30.145 -18.018,57.73 -23.637,88.905c-2.429,13.468 -0.34,10.089 -5.149,7.059c-0.71,4.169 -0.72,9.699 -1.65,13.948c-0.799,3.679 -18.767,1.83 -22.726,1.83c-13.198,0 -20.177,15.907 -34.234,11.818c-17.428,-5.07 -29.866,1.039 -46.703,0.85c-7.349,-0.08 -12.368,-0.2 -15.707,-0.43c0.41,1.959 1.799,3.529 4.379,4.229c7.889,2.16 18.327,-0.19 25.816,-0.81c38.444,-3.189 29.475,7.619 48.062,-1.67c6.869,-3.439 11.608,-5.579 19.727,-8.338c11.138,-3.79 17.617,-1.28 25.186,-1.28c2.879,-5.439 2.399,-2.98 2.399,-11.228l2.41,0c0,-4.03 1.49,-7.709 2.39,-11.239l19.836,-48.312c1.98,-8.348 3.93,-12.048 6.749,-20.516l14.038,-40.484c1.82,-5.549 9.919,-39.684 9.919,-43.793c6.069,2.19 9.068,14.988 12.038,19.237c0,-7.649 0.959,-9.398 -0.21,-17.427c-0.71,-4.909 -3,-9.559 -3,-15.438c7.579,0.17 10.318,8.089 16.038,9.619c-2.02,-4.21 -3.21,-12.958 -5.62,-18.427l-8.008,-16.048c3.429,1.82 1.379,1.29 4.009,3.21c0.55,-6.689 2.64,-5.139 -1.68,-10.348c-2.189,-2.62 -5.229,-4.39 -5.539,-8.089c5.789,3.059 12.608,10.528 16.038,12.828c-0.69,-8.289 -4.9,-16.318 -5.609,-24.856c3.079,0.65 2.099,1.659 3.259,-2.28l3.939,-16.177c4,-15.358 5.989,-26.056 6.269,-33.795c0.14,-3.689 -3.729,-17.237 -7.088,-30.715c3.059,0 8.808,22.267 13.667,29.255c0.25,-1.069 1.13,-3.669 1.42,-4.199c1.23,-2.27 0.03,-1.53 2.59,-2.22c0.32,14.438 19.746,40.384 31.285,48.103c-1.45,-23.377 -11.079,-82.087 -1.54,-113.182c-4.859,3.379 -14.378,21.606 -11.808,59.18c0.23,3.26 -14.788,-16.577 -15.498,-17.847c-9.368,-16.777 -2.539,4.01 -4.009,7.549c-8.829,-3.349 -18.447,-22.166 -22.476,-30.535c-0.5,-1.03 -2.33,-5.759 -4.01,-9.888Zm-232.142,361.461c-0.21,0.49 -0.37,0.96 -0.47,1.41c5.389,1.25 9.388,3.43 17.627,-0.83c5.509,-2.849 26.216,-27.215 35.314,-29.635c-3.339,4.969 -5.609,5.759 -6.419,8.819c10.289,0 17.107,0.699 25.616,2.459c3.759,0.77 6.919,1.82 10.948,2.67c3.98,0.84 6.709,0.62 8.869,2.499c7.589,-0.99 13.608,-5.119 10.758,-5.049c-6.459,0.18 -41.623,-6.019 -44.023,-8.618c5.329,-10.339 4.639,-8.679 -3.519,-8.089c-17.537,1.28 -36.734,34.344 -54.701,34.364Z" style="fill:#2d2922;"/><path d="M415.244,959.365"/><path d="M253.42,593.554"/><path d="M180.902,532.824c-3.409,0.26 -3.469,2.27 -5.909,2.2c-1.02,-8.779 -2.65,-22.907 -5.139,-31.365c-2.15,-7.329 -2.8,-14.068 -1.77,-21.677c0.98,-7.299 -2.689,-20.966 -4.159,-28.405c-2.83,-14.298 -4.499,-28.356 -2.2,-42.893c0.45,-2.81 -0.02,-5.889 0.09,-8.769c0,-0.09 0.02,-0.22 0,-0.31c-0.63,-1.16 -1.97,-2.259 -2.819,-3.839c-7.839,-14.708 -2.61,-21.287 0.15,-35.414c1.389,-7.149 2.149,-14.238 1.789,-21.527c-0.25,-4.999 -1.09,-9.898 -1.39,-14.868c-0.559,-9.258 1.64,-17.037 5.3,-24.876c-1.37,1.9 -2.84,3.45 -4.37,4l-5.959,2.139c-3.039,-35.974 26.886,-60.53 59.341,-67.599c-0.94,-1.829 -1.3,-3.379 -2.03,-5.399c40.684,-3.459 55.881,0.86 93.515,14.488c-0.56,-1.82 -4.699,-6.949 -5.019,-8.909c11.828,-0.01 42.213,11.488 51.931,19.377c13.478,-15.027 20.527,-13.318 32.115,-12.558c-6.319,4.28 -13.468,7.519 -18.467,16.868c4.619,-0.67 8.319,-1.33 12.968,-1.72l-6.749,7.479c7.649,-0.8 13.458,-0.52 18.597,-1.39l-7.889,9.728l9.269,0.46c-0.25,0.42 -7.179,7.289 -7.469,7.659l6.959,2.29c0.01,3.849 -2.16,6.968 -4.929,9.408c3.329,5.449 6.629,8.279 9.148,14.918c4.24,11.168 3.29,25.126 1.63,36.704c-0.65,4.549 -0.63,9.138 -0.91,13.727c12.238,1.63 18.207,12.408 17.547,25.416c-0.539,10.739 -4.819,20.197 -8.768,29.986c-7.479,18.527 -4.399,35.414 -30.505,38.803c-6.459,0.83 -9.859,-0.98 -10.169,0.9c-0.48,2.93 -7.158,9.969 -8.188,12.668c-1.13,2.97 -6.829,7.939 -10.549,11.018c0.16,5.289 4.54,15.758 3.62,20.637c-2.48,13.148 -6.899,29.995 -16.507,39.464c-19.157,18.897 -21.477,16.167 -40.194,26.785l0.31,-4.499c-10.018,4.499 -19.637,8.849 -29.445,13.768l0.37,-4.19c-6.149,3.28 -14.298,9.069 -21.807,5.66c-1.22,0.739 -22.506,9.228 -25.166,9.538c-16.197,-15.687 -31.845,-34.094 -36.174,-55.881Z"/><path d="M256.05,573.238c-3.06,0.269 -3.819,0.869 -7.139,1.199c-3.759,0.37 -5.289,1.38 -5.829,-1.799c-6.159,4.919 -6.999,3.819 -14.008,7.039c-2.909,1.339 -3.199,-0.13 -5.149,0.749c-2.739,1.24 -2.3,2.52 -6.569,2.88l-1.47,-10.638c-1.509,1.309 -2.979,4.199 -2.809,7.038c-5.099,-5.389 -10.638,-10.678 -14.088,-17.347c-2.849,-5.519 -0.67,0.21 -6.839,-8.608l-3.009,-5.109c-1.92,-3.5 -1.62,-0.52 -2.96,-4.53c-2.199,-6.589 -2.459,-9.938 -3.189,-18.507c-1.94,0.63 -5.789,4.13 -6.259,0.05c-0.23,-1.959 0.89,-6.329 1.1,-8.588c0.799,-8.749 -7.299,-16.878 -4.94,-34.445c1.98,-14.677 -11.058,-41.563 -6.369,-71.168c0.55,-3.42 0.02,-5.969 0.15,-9.359c0.13,-3.429 -1.919,-3.879 -3.389,-6.619c-6.999,-13.128 -1.69,-20.327 0.63,-32.195c6.969,-35.694 -8.109,-36.194 8.738,-66.779c8.209,-14.897 16.428,-22.996 16.718,-23.506c-23.666,7.659 -26.796,26.166 -30.545,27.516c-0.28,-3.39 2.549,-10.079 3.759,-13.548c4.489,-12.878 9.598,-22.517 21.617,-30.335c7.898,-5.14 16.657,-8.339 25.465,-10.909c16.968,-4.929 20.897,-0.859 31.155,-0.879c-1.519,-1.1 -9.018,-3.28 -11.258,-3.98c-4.939,-1.5 -10.648,-1.35 -11.498,-3.719c10.318,-0.87 19.417,-1.21 28.625,-0.49c14.638,1.15 45.813,7.669 58.791,13.288l9.828,4.459c-0.969,-1.21 -1.559,-1.41 -2.479,-2.64c-1.25,-1.649 -5.079,-7.958 -5.369,-9.728c0.969,0 37.944,16.647 39.343,17.747l7.439,6.049c0.69,-4.749 5.799,-10.758 9.429,-13.458c4.719,-3.489 4.679,-3.549 10.738,-4.199l-5.589,6.459c-2.4,2.24 -7.779,8.079 -8.339,11.238c5.769,-0.98 8.899,-1.89 15.658,-2.459c-1.73,2.829 -8.769,4.569 -11.149,8.868c6.539,-1.1 9.029,-2.709 16.908,-3.269c0.04,-0.13 0.27,0.05 0.39,0.11c-3.83,1.239 -9.489,4.269 -12.418,7.278c2.339,-0.39 3.429,-1.119 6.688,-1.099c3.61,0.03 2.21,0.07 5.64,-0.51c-4.23,3.579 -9.099,4.529 -11.189,8.318c5.02,-1.629 11.469,-2.749 17.248,-3.729c-1.31,2.14 -5.43,4.019 -7.639,5.559l-7.259,5.899c2.37,-0.4 1.12,-0.59 3.749,-0.73c2.94,-0.17 7.239,-1.7 9.609,-2.099c0.01,3.359 -3.41,6.129 -6.129,7.878c3.669,11.298 17.747,12.608 12.038,52.452c-0.96,6.709 -0.45,12.368 -1.44,19.157c12.828,-1.08 18.657,8.048 18.037,20.436c-0.52,10.219 -5.019,19.977 -8.428,28.406c-4.87,12.078 -3.7,24.476 -14.668,32.015c-4.019,2.769 -10.478,4.679 -15.947,4.069c-2.36,-0.27 -4.21,-1.76 -6.04,-2.77l0.62,7.319c0,0 -2.529,17.178 -3.439,19.547c-0.91,2.38 -11.008,10.568 -11.008,10.568c0,0 2.719,29.656 -17.637,49.712c-20.337,20.057 -26.206,19.137 -26.206,19.137l-0.54,-2.869l-7.569,5.419l0.22,-3.22l-5.449,3.33c0,0 -21.247,9.548 -23.856,10.868l0.38,-4.459l-12.528,6.689l-1.08,1.55Z"/><path d="M315.31,254.399"/><path d="M360.483,265.867"/><path d="M361.743,267.457"/><path d="M165.045,286.954"/><path d="M364.992,272.276"/><path d="M371.911,400.845"/><path d="M168.574,408.994c-4.339,35.844 5.889,47.402 7.789,71.868c0.67,8.649 3.769,9.599 4.669,14.888l5.519,-8.399c-3.409,0.22 -1.61,0.51 -2.339,-0.929l1.289,-2.04c2.75,-4.659 3.84,-3.939 4.37,-4.669c0.32,-0.44 -1.88,-0.75 2.579,-4.1c4.859,-3.649 14.398,-6.489 19.127,-0.58c13.518,-7.948 30.665,-2.769 45.533,2.39l12.768,3.439c-2.19,0.89 -3.61,0.79 -6.139,1.09c11.408,8.069 17.177,20.037 24.116,17.187c3.959,-1.639 8.408,-8.598 9.128,-19.436c1.77,0.31 2.34,1.219 3.66,1.859c7.569,-17.187 7.928,-48.442 -13.128,-57.89c15.517,1.609 -5.659,-4.8 -2.15,-4.66c20.687,0.81 40.794,-10.418 50.062,-29.295c10.438,-21.236 -7.649,-48.602 -27.625,-56.941c-2.55,-1.06 8.418,-29.095 -6.399,-34.354c-56.021,-19.867 -82.837,12.888 -99.744,36.324c-14.608,-19.997 -35.415,-19.917 -34.105,-4.969c0.7,8.029 0.93,15.887 0.09,24.126c-1.36,13.368 -4.689,17.887 -5.989,26.806c2.05,-0.67 2.43,-1.29 4.969,-1.56c-0.85,-1.43 -0.57,-0.56 -0.8,-2.76c2.38,-0.21 3.23,-0.55 4.64,-0.83c2.149,-0.42 2.449,0.07 4.359,0.06c-0.52,-1.619 -0.71,-1.669 -0.89,-3.889c1.52,0.23 3.24,0.32 4.589,0.74c1.63,0.51 2.08,1.07 4.08,1.36c0.17,-1.09 0.06,-0.94 0.42,-1.73c3.449,-0.22 9.338,2.36 11.148,4.129c3.199,3.13 3.889,8.199 3.239,11.189c-13.737,-2 -20.306,-1.79 -35.234,-0.53c0.86,2.639 1.04,4.699 2.47,6.988c0.76,1.22 1.299,2.24 2.509,3.35c8.429,-6.949 25.576,-5.449 32.385,3.579c1.62,2.15 1.62,2.21 3.13,2.48c1.839,-12.628 1.119,-5.619 0.15,-11.348c10.768,15.447 -16.158,48.632 -12.079,62c2.88,9.458 14.598,9.428 16.278,14.128c-3.81,0 -12.998,-4.66 -15.158,-6.799c-4.479,-4.42 -7.159,-10.209 -4.399,-17.008c7.459,-18.377 7.629,-20.176 13.248,-35.114c-3.89,3.959 -23.586,12.868 -32.135,-0.15Z" style="fill:#ffd5c1;"/><path d="M168.574,408.994c-0.71,5.839 -1.03,11.038 -1.06,15.747c0.85,0.42 1.77,0.85 2.76,1.31c6.619,3.06 17.137,5.329 23.786,1.31c2.01,-5.469 3.449,-9.708 6.649,-18.217c-3.89,3.959 -23.586,12.868 -32.135,-0.15Zm26.346,-31.945c2.559,3.14 3.079,7.629 2.489,10.369c-13.737,-2 -20.306,-1.79 -35.234,-0.53c0.86,2.639 1.04,4.699 2.47,6.988c0.76,1.22 1.299,2.24 2.509,3.35c8.429,-6.949 25.576,-5.449 32.385,3.579c1.62,2.15 1.62,2.21 3.13,2.48c1.839,-12.628 1.119,-5.619 0.15,-11.348c0.709,1.01 1.249,2.109 1.649,3.259c0.22,-3.189 0.06,-7.589 -2.259,-12.648c-1.55,-3.409 -4.16,-4.999 -7.289,-5.499Z" style="fill:#e2b6a6;"/><path d="M282.996,498.9c1.619,0.749 3.199,0.919 4.859,0.239c3.959,-1.639 8.408,-8.598 9.128,-19.436c1.77,0.31 2.34,1.219 3.66,1.859c7.569,-17.187 7.928,-48.442 -13.128,-57.89c15.517,1.609 -5.659,-4.8 -2.15,-4.66c20.687,0.81 40.794,-10.418 50.062,-29.295c10.438,-21.236 -7.649,-48.602 -27.625,-56.941c-2.55,-1.06 8.418,-29.095 -6.399,-34.354c-29.246,-10.368 -50.522,-6.399 -66.59,3.099c5.29,-1.229 12.238,-2.019 21.887,-2.019c6.179,0 30.335,-2.54 30.765,6.069c0.8,15.587 7.669,50.522 -13.998,54.161c-12.008,2.01 -14.378,5.389 -32.395,6.379c-32.504,1.79 -23.596,46.712 -28.935,66.099c-0.43,1.53 -4.059,21.177 -0.14,16.708c3.15,-3.58 13.078,-9.779 17.617,-8.199c0.14,0.67 -1.56,-38.524 39.014,-23.866c15.747,5.689 19.677,33.104 14.368,82.047Z" style="fill:#e2b6a6;"/><path d="M388.988,368.241c-2.769,-27.716 8.679,-37.164 -5.929,-61.051c-0.579,-0.939 -0.879,-1.229 -1.399,-2.059c-6.779,-11.028 -2.45,-9.349 -0.28,-13.278c-11.238,0.95 -6.809,-0.13 -11.908,-0.13c4.699,-5.269 5.159,-4.299 9.458,-8.729c-4.869,0.82 -8.599,2.99 -14.438,3.49c0.91,-0.93 1.39,-1.58 2.31,-2.76c2.12,-2.699 4.899,-4.269 7.109,-6.539c-2.23,0.38 -6.089,1.98 -7.689,2.92c0.53,-2.99 3.58,-5.779 5.569,-7.829c-5.989,1.01 -7.888,4.089 -11.908,6.669c1,-6.819 7.859,-9.778 9.279,-12.348c-7.999,1.95 -8.029,2.01 -12.288,3.539c1.01,-6.928 9.588,-16.607 13.398,-19.436c-8.109,2.459 -16.268,18.177 -18.368,15.577c-1.359,-1.69 -35.804,-17.937 -38.853,-18.487c6.999,10.558 10.148,11.278 13.048,13.628c7.248,3.139 -53.472,-17.597 -68.479,-20.377c-7.129,-1.32 -17.428,-2.939 -26.376,-2.18l1.85,0.9c5.209,1.88 37.834,12.318 16.407,8.419c-17.377,-3.16 -35.164,-2.56 -51.342,4.029c-11.408,4.65 -22.486,11.958 -28.575,22.907c-1.28,2.309 -4.539,8.998 -4.539,11.838c1.689,-1.35 2.489,-2.88 4.069,-4.4c8.989,-8.618 27.945,-15.947 40.503,-18.077c-1.679,2.75 -10.648,5.909 -14.947,8.809c-11.478,7.729 -24.516,29.875 -27.436,41.683c-0.21,0.29 -0.46,0.61 -0.76,0.98c-0.26,0.31 0.13,3.27 0.16,3.16c0.23,-0.58 0.47,-1.15 0.72,-1.71c4.569,-7.619 21.347,-1.53 31.055,6.389c16.648,-17.737 41.943,-44.213 92.995,-34.565c16.318,3.08 21.967,6.579 23.606,21.027c-1.329,4.909 -4.829,17.957 -5.329,19.967c6.049,0.88 15.378,9.728 19.747,14.507c8.579,9.379 12.198,20.347 14.928,36.505c-5.699,12.827 -11.688,22.976 -21.517,30.195c-7.669,5.629 -17.837,9.918 -30.965,9.408c-3.509,-0.14 17.667,6.269 2.15,4.669c25.456,17.758 9.868,53.882 10.238,59.811c-3.629,-0.53 -5.239,-4.06 -5.659,-0.66c-0.72,5.919 -1.83,10.808 -8.908,15.907c-8.639,6.229 -14.768,-11.488 -32.145,-18.087c1.579,-2.589 1.04,0.11 2.619,-2.489c-9.948,0.589 -22.886,-12.378 -49.612,-3.73c-2.579,-1.42 -2.869,-2.919 -6.569,-3.419c-2.999,-0.39 -4.439,1.02 -7.219,2.239c-3.969,1.76 -1.379,0.85 -5.289,4.94c-1.069,1.119 -4.019,4.079 -4.549,5.049c2.63,-0.01 0.93,-0.69 2.34,0.93c-2.2,1.409 -4.86,6.379 -5.789,9.218c-0.51,1.53 -0.53,2.49 -1.04,3.82c-3.14,-1.33 -3.14,-3.04 -4.919,-7.159c-1.61,-3.7 -2.33,-4.82 -2.75,-9.749l-0.56,0.05c0.38,4.43 -0.34,7.679 0.7,12.168c4.049,17.337 4.069,12.748 4.099,31.045c1.6,-1.04 2.93,-1.899 5.479,-2.169l2.79,14.887c1.6,-4.399 0.33,-2.519 2.67,-4.019c0,4.379 -1.6,6.839 0.47,11.818c0.779,1.88 3.639,7.119 5.229,8.659c-0.48,-5.68 0.37,-8.489 3.589,-11.069c-1.4,9.669 -3.139,8.979 2.26,17.757c2.989,4.86 8.458,10.429 9.468,13.538c1.05,-0.92 2.17,-3.519 6.229,-6.759c0.23,2.73 1.23,6.879 1.71,9.129c1.05,4.879 1.31,2.27 3.899,-0.3c12.628,-12.498 12.218,-13.098 6.499,0.34c7.379,-2.39 13.878,-8.379 20.017,-12.328c-0.53,2.949 -2.92,4.679 -3.419,7.529c8.028,-0.68 15.317,-3.69 21.686,-7.299c4.839,-2.75 2.41,-2.96 5.729,-3.52c-0.88,1.58 -2.569,4.55 -2.849,6.469c5.459,-3.509 13.177,-5.469 20.586,-10.838c4.889,-3.539 7.899,-7.429 4.949,-2.09c3.41,-1.099 4.02,-2.569 6.519,-3.379c-0.599,1.39 -1.139,2.02 -1.399,3.509c4.709,-3.769 3.079,-3.769 9.698,-5.919c-2.14,3.85 -2.989,1.77 -3.509,5.4c8.628,-5.55 15.127,-9.479 22.956,-16.668c8.569,-7.859 15.677,-20.806 18.627,-33.034c0.96,-3.96 20.787,5.899 20.787,2.289c0,0 -7.869,-16.537 -6.969,-18.907c0,-1.69 -0.25,-16.107 -0.18,-17.527l-0.92,-18.177c-0.53,-5.129 -3.909,-18.927 -4.239,-22.876c2.109,0 3.039,0.63 4.639,1.309c-1.19,-3.659 -3.01,-8.108 -3.79,-12.218c-4.049,-21.556 3.73,-47.782 30.765,-50.681Z" style="fill:#3e372f;"/><path d="M167.374,279.595c-1.19,2.659 -2.329,5.679 -2.329,7.359c1.689,-1.35 2.489,-2.88 4.069,-4.4c7.439,-7.128 21.706,-13.387 33.525,-16.527c-8.369,1.36 -20.597,2.64 -21.757,3.61c-5.089,4.269 -9.418,7.128 -13.508,9.958Zm32.875,-9.349c-2.09,1.03 -4.219,1.9 -5.579,3.04c-26.886,22.686 -29.865,43.363 -28.036,45.823c7.739,-9.979 25.556,-0.39 31.775,4.679c14.068,-14.988 34.305,-36.204 71.029,-36.614c4.459,-1.65 8.768,-2.93 8.838,-3.13c-3.149,0.2 -12.858,-2.029 -16.587,-2.439c-26.296,-2.86 -41.243,-2.47 -57.581,18.647c-5.319,6.868 -4.329,9.228 -4.559,4.969c-0.81,-15.298 11.018,-19.367 -4.099,-15.258c-5.089,1.38 -10.259,6.119 -9.629,3.87c2.45,-8.839 7.359,-17.548 14.428,-23.587Z" style="fill:#2d2922;"/><path d="M207.198,484.962c7.239,13.408 2.129,-5.139 16.437,2.139c10.848,5.51 -2.539,-3.119 6.859,0.02c0.16,0.05 26.096,7.269 23.576,4.41c-5.629,-6.389 1.71,0.94 7.269,3.089c3.709,1.44 17.797,14.688 18.147,14.748c1.42,4.109 1.61,0.66 -3.089,1.49c-3.77,0.669 3.289,9.038 -2.63,7.238c-10.688,-3.239 4.349,7.179 -10.378,7.179c-12.598,0 -0.97,5.759 -11.988,4.59c-5.309,-0.57 -7.399,-5.15 -8.959,-2.63c-3.969,6.379 -1.55,4.239 -5.279,1.84c-2.08,-1.34 -3.689,5.849 -5.489,3.639c-6.279,-7.699 -9.369,1.03 -11.068,-1.77c-3.05,-5.039 -2.07,-3.479 -5.509,-0.939c-2.95,2.169 -6.019,-6.589 -9.369,-2.8c-6.399,7.229 -8.109,-5.839 -10.798,-3.409c-1.44,1.299 -2.85,-0.18 -4.18,0.249c-4.109,-7.808 -0.08,-13.177 -4.839,-6.768c0.41,-0.55 2.03,-12.608 2.83,-15.268c-8.739,10.068 1.34,-11.148 2.859,-11.198c7.119,-0.24 11.568,-9.749 15.648,-6.599l-0.05,0.75Z" style="fill:#2d2922;"/><path d="M388.988,368.241c-0.409,-4.06 -0.509,-7.739 -0.429,-11.119c-1.21,-5.009 -7.839,-46.922 -11.539,-49.232c-4.709,-2.939 -0.27,19.427 -5.919,11.968c-20.406,-26.955 2.46,25.556 -24.286,-5.919c-0.03,0.07 -3.219,17.558 -3.199,17.758c-9.069,-23.177 -1.78,-16.728 -19.097,-3.86c-3.27,-10.898 4.129,-39.733 16.897,-49.322c0.35,-0.27 -9.908,-20.927 -9.538,-3.649c0.07,2.919 -26.576,-13.728 -31.805,-15.748c-34.585,-13.378 -24.166,-10.768 -7.899,8.899c-0.35,0.16 -57.931,-3.58 -58.8,4.239c12.108,-0.82 30.275,5.139 22.836,6.159c-39.584,5.409 -57.801,45.373 -57.801,45.373c51.292,-55.631 96.475,-31.655 109.473,-28.966c10.888,16.048 3.419,28.946 1.789,35.395c6.059,0.88 15.388,9.728 19.757,14.507c10.788,11.788 23.926,40.574 -6.589,66.7l25.106,-10.689c2.32,4.15 8.379,40.294 5.719,31.725c-4.199,-13.548 -2.629,25.576 -2.629,28.526c0,21.736 9.548,27.625 -7.469,12.708c-1.69,-1.48 -12.108,34.264 -18.077,43.243c-20.687,31.135 6.989,-20.647 -23.057,15.957c-7.278,8.879 -41.663,33.985 -39.073,26.886c14.247,-39.094 -6.759,4.219 -26.006,4.219c0,-16.467 9.088,-22.526 -6.229,-10.558c-7.599,5.939 -11.898,13.178 -13.998,10.558c-18.597,-23.226 1.41,9.518 -16.897,-4.999l-0.13,-0.1c0.4,0.7 0.86,1.48 1.4,2.349c2.989,4.86 8.458,10.429 9.468,13.538c1.05,-0.92 2.17,-3.519 6.229,-6.759c0.23,2.73 1.23,6.879 1.71,9.129c1.05,4.879 1.31,2.27 3.899,-0.3c12.628,-12.498 12.218,-13.098 6.499,0.34c7.379,-2.39 13.878,-8.379 20.017,-12.328c-0.53,2.949 -2.92,4.679 -3.419,7.529c8.028,-0.68 15.317,-3.69 21.686,-7.299c4.839,-2.75 2.41,-2.96 5.729,-3.52c-0.88,1.58 -2.569,4.55 -2.849,6.469c5.459,-3.509 13.177,-5.469 20.586,-10.838c4.889,-3.539 7.899,-7.429 4.949,-2.09c3.41,-1.099 4.02,-2.569 6.519,-3.379c-0.599,1.39 -1.139,2.02 -1.399,3.509c4.709,-3.769 3.079,-3.769 9.698,-5.919c-2.14,3.85 -2.989,1.77 -3.509,5.4c8.628,-5.55 15.127,-9.479 22.956,-16.668c1.57,-1.44 3.089,-3.049 4.549,-4.799c1.59,-2.41 3.22,-5.009 5.819,-8.259c3.72,-6.229 6.629,-13.208 8.259,-19.976c0.13,-0.53 0.6,-0.81 1.31,-0.91c1.599,-11.728 -1.64,-18.567 3.709,0.36c0.82,0.18 1.7,0.41 2.62,0.66c2.979,-5.53 4.749,-11.499 6.169,-17.568c-0.04,-3.539 -0.23,-15.397 -0.17,-16.687l-0.92,-18.177c-0.53,-5.129 -3.909,-18.927 -4.239,-22.876c2.109,0 3.049,0.63 4.639,1.309c-1.19,-3.659 -3.01,-8.108 -3.79,-12.218c-4.049,-21.556 3.73,-47.782 30.765,-50.681Z" style="fill:#2d2922;"/><path d="M364.922,432.03c-0.57,-6.709 -0.49,-16.297 0.29,-21.686c1.74,-12.038 15.918,-34.465 28.336,-35.155c2.299,-0.129 2.949,0.29 3.569,2c-5.059,0.42 -6.419,1.22 -9.458,3.51c-4.6,3.469 -14.818,14.957 -15.748,20.146c2.27,-1.449 5.209,-3.519 8.289,-3.949c1.12,-0.16 7.059,0.26 8.549,1.96c-5.06,-0.74 -18.557,4.799 -19.927,10.348c-1.84,7.519 -3.79,17.437 -3.15,25.026c-2.939,0.18 -3.799,-0.92 -5.819,-1.78c0.34,2 2.07,5.249 2.97,9.489c2.269,10.688 17.267,6.639 22.696,1.719c6.659,-6.029 6.369,-14.947 9.189,-24.106c3.599,-11.668 19.056,-37.394 8.188,-43.653c-23.906,-13.767 -53.021,14.988 -37.974,56.131Z" style="fill:#ffd5c1;"/><path d="M364.922,432.03c-0.11,-1.309 -0.2,-2.719 -0.26,-4.189c-0.21,0.66 -0.39,1.29 -0.53,1.9c0.25,0.76 0.51,1.519 0.79,2.289Zm30.875,-56.611c0.63,0.28 0.98,0.83 1.32,1.77c-5.059,0.42 -6.419,1.23 -9.458,3.51c-4.61,3.469 -14.818,14.957 -15.748,20.146c2.27,-1.449 5.209,-3.519 8.289,-3.949c1.12,-0.16 7.059,0.26 8.549,1.96c-5.06,-0.74 -18.557,4.799 -19.927,10.348c-1.84,7.519 -3.79,17.437 -3.15,25.026c-0.78,0.05 -1.42,0.01 -1.969,-0.1c0.589,10.628 14.867,9.498 16.777,-1.63c4.889,-28.375 -7.189,-9.918 16.157,-34.614c6.969,-7.359 2.41,-22.856 -0.84,-22.467Z" style="fill:#e2b6a6;"/><path d="M377.73,385.538c0.89,-1.22 1.86,-2.31 2.97,-3.24m9.948,-3.599c1.39,-0.05 2.91,0.01 4.549,0.21c3.26,0.4 8.409,11.618 1.44,18.977c-23.346,24.696 -11.268,6.239 -16.157,34.614c-1.85,10.779 -7.629,10.918 -14.958,4.849c-2.449,-2.029 -1.569,-2.069 0.15,-3.119" style="fill:none;"/><path d="M296.003,555.12"/><path d="M295.494,555.73"/><path d="M229.304,577.197"/><path d="M175.763,373.28c5.489,0.8 7.459,4.209 10.598,4.769c-2.199,-3.419 -2.159,-1.53 -2.629,-4.309c6.079,0.88 11.138,4.349 11.738,11.458c-14.048,-2.04 -18.547,-1.82 -33.485,-0.56c0.58,-3.25 5.929,-4.389 9.239,-4.739c-0.13,-0.07 -0.37,-0.26 -0.42,-0.13c-3.03,-1.01 -2.62,-0.81 -3.2,-2.4c3.93,-0.34 5.439,-1.03 9.519,-1.37c-0.47,-1.449 -0.65,-1.609 -1.36,-2.719Z" style="fill:#2d2922;"/><path d="M175.763,373.28c5.489,0.79 7.459,4.209 10.598,4.769c-2.199,-3.419 -2.159,-1.53 -2.629,-4.319c2.539,0.37 4.889,1.19 6.818,2.539c1.17,1.64 1.93,3.69 2.14,6.189c-12.038,-1.749 -17.067,-1.839 -27.675,-1.03c1.929,-0.899 4.379,-1.339 6.209,-1.539c-0.13,-0.06 -0.37,-0.25 -0.42,-0.13c-3.03,-1 -2.62,-0.8 -3.2,-2.39c3.93,-0.34 5.439,-1.03 9.519,-1.37c-0.47,-1.449 -0.65,-1.609 -1.36,-2.719Z" style="fill:#3e372f;"/><path d="M182.602,373.83"/><path d="M200.149,413.693"/><path d="M298.263,372.57"/><path d="M255.82,360.762"/><path d="M237.853,456.886c0.24,2.9 -3.969,7.249 -5.579,9.049c3.949,-0.34 8.728,-3.25 8.178,-9.739c-0.399,-4.779 -6.978,-16.447 -9.798,-17.257c0.45,3.12 6.639,11.398 7.199,17.947Z"/><path d="M221.885,462.835c3.95,-0.33 4.99,0.89 6.009,4.02c3.94,-1.42 3.74,-6.279 -3.469,-7.679c-6.589,-1.29 -14.818,5.489 -11.438,5.909c1.37,0.17 6.079,-2.01 8.898,-2.25Z"/><path d="M166.524,393.427c3.1,-2.02 8.949,-5.13 23.787,-1.49c2.569,0.64 5.539,1.69 8.178,2.069c-6.309,-7.868 -27.645,-8.368 -31.965,-0.579Z"/><path d="M277.846,360.522c6.549,-0.74 7.649,-0.73 11.669,1.7c0.349,0.709 -0.7,0.45 -1.64,1.989c7.469,1.41 10.648,7.849 16.397,11.298c1.88,1.12 1.36,0.18 1.46,1.97l-16.877,-4.249c-10.279,-2.02 -7.199,-2.33 -19.567,-1.29c-11.718,0.99 -30.645,6.409 -42.713,13.338l-2.26,-10.508c-2.19,-5.04 -2.05,-1.56 -1.25,-8.769c1.85,0.43 4.59,3.289 5.949,4.419c1.43,-4.929 4.52,-8.408 8.519,-11.188c-0.8,2.97 -0.66,2.81 -0.8,4.999c6.259,-6.369 13.468,-8.578 7.709,-0.04c2.639,-0.85 10.538,-5.669 16.557,-6.329c-0.77,2.23 -0.83,1.6 -0.68,2.52c5.969,-1.93 11.438,-2.49 17.217,-2.36l3.6,0.6l-3.29,1.9Z"/><path d="M273.477,360.502c-8.369,0.71 -14.648,1.36 -21.106,4.869c0.839,-2.45 1.939,-3.269 3.449,-4.609c-2.03,0.36 -7.929,3.219 -10.068,4.559c-6.289,3.959 -3.27,-0.85 -1.41,-4.819c-3.85,2.249 -7.309,4.099 -9.529,8.818c-2.599,-2.459 1.92,-5.329 -0.55,-6.119c-1.499,3.19 -4.989,6.719 -4.409,10.229c-3.569,-0.67 -3.229,-2 -4.609,-3.3c-0.03,1.06 2.679,8.469 3.369,11.149c4.81,-2.48 20.847,-8.149 25.886,-9.219c3.23,-0.68 6.649,-1.36 9.389,-1.96c23.136,-5.069 24.606,2.38 34.374,2.47l-3.109,-2.8c-3.05,-2.079 -9.329,-4.769 -13.638,-4.409c0.88,-1.76 0.97,-1.65 1.63,-2.29c-1.63,-0.04 -11.279,0.5 -12.938,1.4c1.449,-2.909 1.439,-1.75 3.269,-3.969Z" style="fill:#2d2922;"/><path d="M252.371,365.371c0.979,-2.839 3.459,-4.389 3.449,-4.609c-1.48,0.02 -8.679,3.689 -10.068,4.559c-7.009,4.419 -2.29,-2.39 -1.41,-4.819c-4,2.05 -7.509,4.509 -9.529,8.818c-2.259,-2.139 1.92,-5.089 -0.55,-6.119c-1.179,2.52 -5.249,7.219 -4.409,10.229c-1.16,-0.22 -2.349,-0.64 -2.729,-1.05c0.659,1.84 1.769,3.899 2.259,5.789c4.809,-2.48 20.847,-8.149 25.886,-9.209c3.23,-0.689 6.649,-1.359 9.389,-1.959c7.608,-1.67 12.877,-1.98 16.857,-1.65c0.88,-1.75 0.97,-1.65 1.63,-2.28c-1.63,-0.04 -11.279,0.5 -12.938,1.4c1.409,-2.169 3.509,-3.979 3.509,-3.969c-3.519,-0.36 -16.527,1.52 -21.346,4.869Z" style="fill:#3e372f;"/><path d="M168.914,401.075c2.29,8.359 8.029,12.318 15.398,10.979c6.238,-1.53 11.528,-4.63 15.547,-5.45c-5.179,-4.069 -8.899,-7.588 -15.348,-8.728c-3.469,-1.14 -12.717,1 -15.597,3.199Z" style="fill:#fff;"/><path d="M184.312,412.044c7.088,-0.97 12.028,-4.44 16.107,-5.28c-5.489,-4.309 -9.439,-8.048 -16.287,-9.258c-0.52,-0.17 -1.16,-0.27 -1.89,-0.31c-0.89,2.03 -1.33,4.379 -1.15,6.839c0.22,3.189 1.42,5.999 3.22,8.009Z" style="fill:#1d3853;"/><path d="M189.021,410.994c4.679,-1.42 8.288,-3.59 11.398,-4.23c-5.019,-3.939 -8.749,-7.398 -14.588,-8.888c-0.67,1.39 -1.04,2.959 -1.04,4.609c0,3.48 1.66,6.569 4.23,8.509Z"/><path d="M296.963,388.777c2,0.95 2.21,1.59 4.31,2.73c5.509,3.009 1.009,1.05 4.929,3.599l-1.32,-0.86c-24.886,-6.549 -38.594,-25.735 -63.02,-7.248c-7.139,5.419 -4.229,14.567 -10.358,15.977c9.928,-35.624 39.334,-26.666 65.459,-14.198Z"/><path d="M237.243,404.665c-0.47,-4.25 4.919,-15.408 8.249,-17.627c16.257,-10.819 38.353,4.399 51.591,13.437c-2.449,-0.25 -12.458,-2.649 -14.347,-3.649c-8.629,12.988 -45.233,10.248 -45.493,7.839Z"/><path d="M240.692,403.325c0,0.01 36.275,2.939 39.324,-7.999c-11.308,-7.639 -34.444,-10.558 -39.324,7.999Z" style="fill:#fff;"/><path d="M260.149,403.475c9.269,-0.72 18.597,-2.81 20.087,-8.169c-6.489,-4.389 -16.817,-7.239 -25.476,-5.509c-0.09,0.61 -0.14,1.23 -0.16,1.87c-0.12,4.869 2.09,9.198 5.549,11.808Z" style="fill:#1d3853;"/><path d="M269.328,402.185c5.529,-1.23 9.928,-3.339 10.908,-6.879c-5.129,-3.469 -12.668,-5.979 -19.887,-6.019c-0.16,0.75 -0.25,1.53 -0.25,2.33c0,5.409 4.01,9.868 9.229,10.568Z"/><path d="M323.689,460.446"/><path d="M172.283,527.595"/><path d="M201.489,500.169c24.346,-2.059 35.614,0.93 41.423,0.43l0.05,0.66c-7.529,0.64 -15.347,1.52 -22.846,1.96c-2.25,0.13 -15.818,-1 -18.627,-3.05Z"/><path d="M271.837,513.097c0.31,2.57 -4.089,1.49 -6.269,1.21c2.87,9.569 -1.079,8.599 -7.628,7.529c-1.71,-0.78 -3.24,-0.35 -3.22,1.36c0.06,4.859 -5.219,3.609 -8.968,0.909c-2.18,-1.569 -2.95,-3.169 -5.11,-0.949c-5.039,5.199 -4.009,0.789 -13.047,0.19c-1.33,-0.08 -2.85,1.279 -4.6,1.659c-8.678,1.92 -16.527,-9.238 -21.996,-2.459c-8.059,-3.63 -8.729,-19.347 -9.179,-22.387c-0.34,-2.279 0.06,-3.479 0.69,-5.129c7.149,0.84 8.569,-7.649 14.278,-4.689c10.748,5.539 5.169,-0.29 13.838,-0.83c1.819,-0.12 1.779,0.58 3.809,1.37c2.95,1.14 0.61,-0.3 4.789,0.07c2.98,0.26 3.26,1.21 4.809,1.53c6.759,1.399 3.18,0.27 12.648,2.939c11.689,3.31 23.497,4.349 25.156,17.677Z"/><path d="M267.798,501.769l0.2,0.35c-0.02,-0.39 -0.03,-0.8 -0.2,-0.35Z"/><path d="M249.821,523.925c4.439,2.37 1.91,-2.649 4.229,-4.129c1.39,-0.89 10.918,3.05 10.589,-0.46c-2.15,-10.188 -0.83,-6.879 5.689,-6.579c-0.26,-2.319 -4.94,-9.458 -8.929,-11.348c-6.569,15.838 -48.092,31.535 -66.839,-2.609c25.076,7.898 48.402,2.459 62.19,1.279l-8.499,-2.929c-5.789,-1.47 -9.358,-2.23 -14.807,-3.21c-1.1,-0.2 -3.61,-1.589 -3.99,-1.629c-3.109,-0.33 -3.099,4.089 -7.759,-1.73l-9.138,3.849c-1.76,0.45 -3.37,0.38 -4.749,-0.34c-2.9,-1.529 0.59,-3.039 -3.57,-2.249c-2.639,0.51 -2.939,4.229 -10.908,5.089c0,4.129 3.769,23.826 8.409,21.806c5.529,-2.419 14.717,5.07 19.127,3.84c5.999,-1.69 5.769,-2.21 11.938,-0.67c2.089,0.52 3.549,1.29 4.279,0.79c3.03,-2.06 5.879,-3.35 8.409,-1.69c1.809,1.19 1.189,1.23 4.329,2.919Z" style="fill:#ffd5c1;"/><path d="M201.549,503.159c0,0 25.776,6.029 54.351,-1.46c0,0 -29.655,19.397 -54.351,1.46Z" style="fill:#fff;"/><path d="M255.49,389.657c1.57,0.02 2.8,1.71 2.75,3.77c-0.05,2.059 -1.37,3.709 -2.94,3.689c-1.57,-0.03 -2.799,-1.71 -2.75,-3.769c0.05,-2.07 1.37,-3.71 2.94,-3.69Z" style="fill:#fff;"/><path d="M182.082,397.246c1.78,-0.13 3.369,1.33 3.559,3.249c0.18,1.92 -1.11,3.59 -2.889,3.72c-1.78,0.13 -3.38,-1.32 -3.56,-3.24c-0.19,-1.929 1.1,-3.589 2.89,-3.729Z" style="fill:#fff;"/><path d="M547.653,949.487c3.769,5.149 6.879,9.738 3.639,6.789c-7.528,-6.839 -7.678,13.598 -24.966,13.598c-2.039,0 -2.949,-0.9 -3.209,-2.26l-3.9,5.099c-0.669,1.66 -2.509,8.109 2.65,8.409c11.048,0.66 22.186,-20.467 26.516,-23.366c-0.08,3.829 -1.17,4.379 -2.66,6.968c-1.19,2.07 -1.929,3.92 -2.949,5.859c11.078,0 17.067,1.47 24.056,-3.209c0,-3.27 -0.06,-3.659 -1.38,-5.829c-2.46,-4.039 -6.639,-6.859 -10.648,-10.198c-0.87,2.629 -0.21,1.649 -3.7,-0.19c-1.279,-0.68 -2.419,-1.23 -3.449,-1.67Zm-27.156,14.877c-1.17,0.73 -2.529,1.45 -3.869,1.83c-3.3,0.92 -23.216,5.229 -23.856,2.55c-0.56,-2.35 -0.54,-4.39 -0.24,-6.119c-1.29,1.24 -2.7,2.539 -4.32,3.929c-2.489,2.13 -9.648,15.698 4.01,15.318c9.068,-0.25 19.637,-9.309 28.275,-17.508Zm-30.555,-5.249c-3.439,1.76 -8.658,4.22 -16.437,7.439c-3.1,1.28 -19.837,8.179 -20.857,3.63c-0.34,-1.49 -0.45,-3.12 -0.42,-4.73c-3.869,3.88 -8.138,7.199 -12.118,13.148c8.689,5.819 13.238,1.27 22.517,0.06c8.268,-1.07 17.517,-10.668 27.315,-19.547Zm-35.984,-4.339l0,-0.04c-3.859,1.67 -18.897,5.309 -25.536,2.52l-0.98,0.669c-5.929,3.97 -15.407,8.589 -15.407,13.458c0,6.509 5.239,7.219 15.237,7.219c2.86,0 7.089,-3.179 8.959,-4.679c7.769,-6.229 7.679,-6.479 12.568,-13.088c1.15,-1.55 2.939,-3.669 5.159,-6.059Z" style="fill:#2d2922;"/><path d="M165.964,412.423c-3.339,14.518 -3.899,32.175 4.57,42.584c1.429,-8.219 1.709,-21.947 9.238,-23.967c4.599,-1.239 -9.188,-1.629 -0.93,-1.769c7.939,-0.14 6.269,-0.23 3.76,-1.24c-5.029,-2.04 -13.058,-8.519 -15.418,-15.648c-0.3,-0.929 -1.08,0.77 -1.22,0.04Z"/><path d="M167.224,415.683c-3.339,14.508 -1.24,25.916 2.25,34.914c1.43,-8.218 2.33,-18.697 6.579,-19.557c4.669,-0.949 -15.448,-2.019 -2.01,-2.519c7.939,-0.29 9.009,0.77 5.279,-0.77c-5.889,-2.44 -11.188,-7.159 -12.098,-12.068Z" style="fill:#3e372f;"/><path d="M187.741,405.005c1.03,-0.08 1.96,0.77 2.07,1.899c0.11,1.12 -0.64,2.09 -1.68,2.17c-1.04,0.07 -1.97,-0.77 -2.08,-1.9c-0.11,-1.119 0.65,-2.089 1.69,-2.169Z" style="fill:#fff;"/><path d="M267.918,397.016c1.04,-0.08 1.97,0.77 2.08,1.89c0.11,1.129 -0.65,2.099 -1.68,2.169c-1.04,0.08 -1.98,-0.77 -2.08,-1.889c-0.11,-1.12 0.64,-2.09 1.68,-2.17Z" style="fill:#fff;"/></g></svg>